<mxfile host="app.diagrams.net" agent="Mozilla/5.0 (Windows NT 10.0; Win64; x64) AppleWebKit/537.36 (KHTML, like Gecko) Chrome/136.0.0.0 Safari/537.36" version="27.0.8">
  <diagram name="Страница — 1" id="QKt2evX4zZ8mMagah-4s">
    <mxGraphModel dx="309" dy="517" grid="1" gridSize="10" guides="1" tooltips="1" connect="1" arrows="1" fold="1" page="1" pageScale="1" pageWidth="827" pageHeight="1169" math="0" shadow="0">
      <root>
        <mxCell id="0" />
        <mxCell id="1" parent="0" />
        <mxCell id="VFXdSf9DOxPuRH9jbH5X-15" value="Система приложения кофейни" style="swimlane;startSize=20;horizontal=1;containerType=tree;newEdgeStyle={&quot;edgeStyle&quot;:&quot;elbowEdgeStyle&quot;,&quot;startArrow&quot;:&quot;none&quot;,&quot;endArrow&quot;:&quot;none&quot;};" vertex="1" parent="1">
          <mxGeometry x="150" y="110" width="1760" height="650" as="geometry" />
        </mxCell>
        <mxCell id="VFXdSf9DOxPuRH9jbH5X-16" value="Ожидание авторизации и оформления заказа пользователем" style="swimlane;startSize=20;horizontal=1;containerType=tree;newEdgeStyle={&quot;edgeStyle&quot;:&quot;elbowEdgeStyle&quot;,&quot;startArrow&quot;:&quot;none&quot;,&quot;endArrow&quot;:&quot;none&quot;};" vertex="1" parent="VFXdSf9DOxPuRH9jbH5X-15">
          <mxGeometry x="110" y="130" width="519" height="220" as="geometry" />
        </mxCell>
        <mxCell id="VFXdSf9DOxPuRH9jbH5X-17" value="Личный кабинет посетителя" style="swimlane;startSize=20;horizontal=1;containerType=tree;newEdgeStyle={&quot;edgeStyle&quot;:&quot;elbowEdgeStyle&quot;,&quot;startArrow&quot;:&quot;none&quot;,&quot;endArrow&quot;:&quot;none&quot;};" vertex="1" parent="VFXdSf9DOxPuRH9jbH5X-16">
          <mxGeometry x="80" y="60" width="200" height="120" as="geometry" />
        </mxCell>
        <mxCell id="VFXdSf9DOxPuRH9jbH5X-18" value="" style="html=1;verticalAlign=bottom;startArrow=oval;startFill=1;endArrow=block;startSize=8;curved=0;rounded=0;" edge="1" parent="VFXdSf9DOxPuRH9jbH5X-17">
          <mxGeometry width="60" relative="1" as="geometry">
            <mxPoint x="-70" y="70" as="sourcePoint" />
            <mxPoint y="70" as="targetPoint" />
          </mxGeometry>
        </mxCell>
        <mxCell id="VFXdSf9DOxPuRH9jbH5X-19" value="&lt;div style=&quot;&quot;&gt;&lt;span style=&quot;background-color: transparent; color: light-dark(rgb(0, 0, 0), rgb(255, 255, 255));&quot;&gt;entry/Авторизация&lt;/span&gt;&lt;/div&gt;&lt;div style=&quot;&quot;&gt;&lt;span style=&quot;background-color: transparent; color: light-dark(rgb(0, 0, 0), rgb(255, 255, 255));&quot;&gt;do/Посмотреть каталог товаров&lt;/span&gt;&lt;/div&gt;&lt;div style=&quot;&quot;&gt;&lt;span style=&quot;background-color: transparent; color: light-dark(rgb(0, 0, 0), rgb(255, 255, 255));&quot;&gt;do/Оформить заказ&lt;/span&gt;&lt;/div&gt;&lt;div style=&quot;&quot;&gt;&lt;span style=&quot;background-color: transparent; color: light-dark(rgb(0, 0, 0), rgb(255, 255, 255));&quot;&gt;do/Оплатить заказ&lt;/span&gt;&lt;/div&gt;&lt;div style=&quot;&quot;&gt;&lt;span style=&quot;background-color: transparent; color: light-dark(rgb(0, 0, 0), rgb(255, 255, 255));&quot;&gt;do/Проверить уведомления&lt;/span&gt;&lt;/div&gt;&lt;div&gt;do/Добавить товары в корзину&lt;/div&gt;" style="text;html=1;align=left;verticalAlign=middle;resizable=0;points=[];autosize=1;strokeColor=none;fillColor=none;" vertex="1" parent="VFXdSf9DOxPuRH9jbH5X-17">
          <mxGeometry y="30" width="200" height="100" as="geometry" />
        </mxCell>
        <mxCell id="VFXdSf9DOxPuRH9jbH5X-20" value="Каталог" style="swimlane;startSize=20;horizontal=1;containerType=tree;newEdgeStyle={&quot;edgeStyle&quot;:&quot;elbowEdgeStyle&quot;,&quot;startArrow&quot;:&quot;none&quot;,&quot;endArrow&quot;:&quot;none&quot;};" vertex="1" parent="VFXdSf9DOxPuRH9jbH5X-16">
          <mxGeometry x="330" y="115" width="150" height="50" as="geometry" />
        </mxCell>
        <mxCell id="VFXdSf9DOxPuRH9jbH5X-21" value="&lt;div style=&quot;&quot;&gt;Список товаров&lt;/div&gt;" style="text;html=1;align=left;verticalAlign=middle;resizable=0;points=[];autosize=1;strokeColor=none;fillColor=none;" vertex="1" parent="VFXdSf9DOxPuRH9jbH5X-20">
          <mxGeometry y="20" width="110" height="30" as="geometry" />
        </mxCell>
        <mxCell id="VFXdSf9DOxPuRH9jbH5X-22" style="edgeStyle=orthogonalEdgeStyle;rounded=0;orthogonalLoop=1;jettySize=auto;html=1;entryX=0;entryY=0.5;entryDx=0;entryDy=0;" edge="1" parent="VFXdSf9DOxPuRH9jbH5X-16" source="VFXdSf9DOxPuRH9jbH5X-19" target="VFXdSf9DOxPuRH9jbH5X-20">
          <mxGeometry relative="1" as="geometry" />
        </mxCell>
        <mxCell id="VFXdSf9DOxPuRH9jbH5X-23" value="" style="html=1;verticalAlign=bottom;startArrow=oval;startFill=1;endArrow=block;startSize=8;curved=0;rounded=0;" edge="1" parent="VFXdSf9DOxPuRH9jbH5X-15">
          <mxGeometry width="60" relative="1" as="geometry">
            <mxPoint x="20" y="259.5" as="sourcePoint" />
            <mxPoint x="100" y="260" as="targetPoint" />
          </mxGeometry>
        </mxCell>
        <mxCell id="VFXdSf9DOxPuRH9jbH5X-28" value="" style="html=1;verticalAlign=bottom;startArrow=oval;startFill=1;endArrow=block;startSize=8;curved=0;rounded=0;" edge="1" parent="VFXdSf9DOxPuRH9jbH5X-15">
          <mxGeometry width="60" relative="1" as="geometry">
            <mxPoint x="520" y="360" as="sourcePoint" />
            <mxPoint x="520" y="380" as="targetPoint" />
          </mxGeometry>
        </mxCell>
        <mxCell id="VFXdSf9DOxPuRH9jbH5X-37" value="Инвентаризация" style="swimlane;whiteSpace=wrap;html=1;" vertex="1" parent="VFXdSf9DOxPuRH9jbH5X-15">
          <mxGeometry x="1260" y="140" width="450" height="200" as="geometry" />
        </mxCell>
        <mxCell id="VFXdSf9DOxPuRH9jbH5X-33" value="Инвентарь" style="swimlane;startSize=20;horizontal=1;containerType=tree;newEdgeStyle={&quot;edgeStyle&quot;:&quot;elbowEdgeStyle&quot;,&quot;startArrow&quot;:&quot;none&quot;,&quot;endArrow&quot;:&quot;none&quot;};" vertex="1" parent="VFXdSf9DOxPuRH9jbH5X-37">
          <mxGeometry x="50" y="60" width="170" height="80" as="geometry" />
        </mxCell>
        <mxCell id="VFXdSf9DOxPuRH9jbH5X-34" value="&lt;div style=&quot;&quot;&gt;Список доступных товаров&lt;/div&gt;&lt;div style=&quot;&quot;&gt;do/Добавить товар&lt;/div&gt;&lt;div style=&quot;&quot;&gt;do/Убрать товар&lt;/div&gt;" style="text;html=1;align=left;verticalAlign=middle;resizable=0;points=[];autosize=1;strokeColor=none;fillColor=none;" vertex="1" parent="VFXdSf9DOxPuRH9jbH5X-33">
          <mxGeometry y="20" width="170" height="60" as="geometry" />
        </mxCell>
        <mxCell id="VFXdSf9DOxPuRH9jbH5X-35" value="Заказ у поставщика" style="swimlane;startSize=20;horizontal=1;containerType=tree;newEdgeStyle={&quot;edgeStyle&quot;:&quot;elbowEdgeStyle&quot;,&quot;startArrow&quot;:&quot;none&quot;,&quot;endArrow&quot;:&quot;none&quot;};" vertex="1" parent="VFXdSf9DOxPuRH9jbH5X-37">
          <mxGeometry x="270" y="70" width="170" height="60" as="geometry" />
        </mxCell>
        <mxCell id="VFXdSf9DOxPuRH9jbH5X-36" value="&lt;div style=&quot;&quot;&gt;Список поставщиков&lt;/div&gt;&lt;div style=&quot;&quot;&gt;do/Заказать товар&lt;/div&gt;&lt;div style=&quot;&quot;&gt;&lt;br&gt;&lt;/div&gt;" style="text;html=1;align=left;verticalAlign=middle;resizable=0;points=[];autosize=1;strokeColor=none;fillColor=none;" vertex="1" parent="VFXdSf9DOxPuRH9jbH5X-35">
          <mxGeometry y="20" width="140" height="60" as="geometry" />
        </mxCell>
        <mxCell id="VFXdSf9DOxPuRH9jbH5X-44" value="" style="html=1;verticalAlign=bottom;startArrow=oval;startFill=1;endArrow=block;startSize=8;curved=0;rounded=0;" edge="1" parent="VFXdSf9DOxPuRH9jbH5X-37" source="VFXdSf9DOxPuRH9jbH5X-37">
          <mxGeometry width="60" relative="1" as="geometry">
            <mxPoint x="10" y="99.5" as="sourcePoint" />
            <mxPoint x="50" y="99.5" as="targetPoint" />
          </mxGeometry>
        </mxCell>
        <mxCell id="VFXdSf9DOxPuRH9jbH5X-45" style="edgeStyle=orthogonalEdgeStyle;rounded=0;orthogonalLoop=1;jettySize=auto;html=1;entryX=-0.029;entryY=0.2;entryDx=0;entryDy=0;entryPerimeter=0;" edge="1" parent="VFXdSf9DOxPuRH9jbH5X-37" source="VFXdSf9DOxPuRH9jbH5X-34" target="VFXdSf9DOxPuRH9jbH5X-36">
          <mxGeometry relative="1" as="geometry" />
        </mxCell>
        <mxCell id="VFXdSf9DOxPuRH9jbH5X-43" value="" style="html=1;verticalAlign=bottom;startArrow=oval;startFill=1;endArrow=block;startSize=8;curved=0;rounded=0;" edge="1" parent="VFXdSf9DOxPuRH9jbH5X-15">
          <mxGeometry width="60" relative="1" as="geometry">
            <mxPoint x="970" y="240" as="sourcePoint" />
            <mxPoint x="970" y="270" as="targetPoint" />
          </mxGeometry>
        </mxCell>
        <mxCell id="VFXdSf9DOxPuRH9jbH5X-27" value="Выполнение заказа" style="swimlane;whiteSpace=wrap;html=1;" vertex="1" parent="VFXdSf9DOxPuRH9jbH5X-15">
          <mxGeometry x="730" y="40" width="470" height="200" as="geometry" />
        </mxCell>
        <mxCell id="VFXdSf9DOxPuRH9jbH5X-24" value="База заказов" style="swimlane;startSize=20;horizontal=1;containerType=tree;newEdgeStyle={&quot;edgeStyle&quot;:&quot;elbowEdgeStyle&quot;,&quot;startArrow&quot;:&quot;none&quot;,&quot;endArrow&quot;:&quot;none&quot;};" vertex="1" parent="VFXdSf9DOxPuRH9jbH5X-27">
          <mxGeometry x="50" y="85" width="160" height="55" as="geometry" />
        </mxCell>
        <mxCell id="VFXdSf9DOxPuRH9jbH5X-25" value="&lt;div style=&quot;&quot;&gt;Список заказов&lt;/div&gt;&lt;div style=&quot;&quot;&gt;do/Добавить новый заказ&lt;/div&gt;" style="text;html=1;align=left;verticalAlign=middle;resizable=0;points=[];autosize=1;strokeColor=none;fillColor=none;" vertex="1" parent="VFXdSf9DOxPuRH9jbH5X-24">
          <mxGeometry y="15" width="160" height="40" as="geometry" />
        </mxCell>
        <mxCell id="VFXdSf9DOxPuRH9jbH5X-29" value="" style="html=1;verticalAlign=bottom;startArrow=oval;startFill=1;endArrow=block;startSize=8;curved=0;rounded=0;" edge="1" parent="VFXdSf9DOxPuRH9jbH5X-27">
          <mxGeometry width="60" relative="1" as="geometry">
            <mxPoint x="5" y="111" as="sourcePoint" />
            <mxPoint x="40" y="110" as="targetPoint" />
          </mxGeometry>
        </mxCell>
        <mxCell id="VFXdSf9DOxPuRH9jbH5X-31" value="База посетителей" style="swimlane;startSize=20;horizontal=1;containerType=tree;newEdgeStyle={&quot;edgeStyle&quot;:&quot;elbowEdgeStyle&quot;,&quot;startArrow&quot;:&quot;none&quot;,&quot;endArrow&quot;:&quot;none&quot;};" vertex="1" parent="VFXdSf9DOxPuRH9jbH5X-27">
          <mxGeometry x="260" y="85" width="200" height="70" as="geometry" />
        </mxCell>
        <mxCell id="VFXdSf9DOxPuRH9jbH5X-32" value="&lt;div style=&quot;&quot;&gt;Список посетителей&lt;/div&gt;&lt;div style=&quot;&quot;&gt;Список сотрудников&lt;/div&gt;&lt;div style=&quot;&quot;&gt;do/Добавить нового посетителя&lt;/div&gt;" style="text;html=1;align=left;verticalAlign=middle;resizable=0;points=[];autosize=1;strokeColor=none;fillColor=none;" vertex="1" parent="VFXdSf9DOxPuRH9jbH5X-31">
          <mxGeometry y="10" width="200" height="60" as="geometry" />
        </mxCell>
        <mxCell id="VFXdSf9DOxPuRH9jbH5X-46" value="Уведомление о статусе заказа" style="swimlane;whiteSpace=wrap;html=1;" vertex="1" parent="VFXdSf9DOxPuRH9jbH5X-15">
          <mxGeometry x="830" y="280" width="250" height="190" as="geometry" />
        </mxCell>
        <mxCell id="VFXdSf9DOxPuRH9jbH5X-49" value="" style="html=1;verticalAlign=bottom;startArrow=oval;startFill=1;endArrow=block;startSize=8;curved=0;rounded=0;" edge="1" parent="VFXdSf9DOxPuRH9jbH5X-46">
          <mxGeometry width="60" relative="1" as="geometry">
            <mxPoint x="140" y="30" as="sourcePoint" />
            <mxPoint x="140" y="70" as="targetPoint" />
          </mxGeometry>
        </mxCell>
        <mxCell id="VFXdSf9DOxPuRH9jbH5X-50" value="Уведомление" style="swimlane;startSize=20;horizontal=1;containerType=tree;newEdgeStyle={&quot;edgeStyle&quot;:&quot;elbowEdgeStyle&quot;,&quot;startArrow&quot;:&quot;none&quot;,&quot;endArrow&quot;:&quot;none&quot;};" vertex="1" parent="VFXdSf9DOxPuRH9jbH5X-46">
          <mxGeometry x="20" y="80" width="210" height="100" as="geometry" />
        </mxCell>
        <mxCell id="VFXdSf9DOxPuRH9jbH5X-51" value="&lt;div style=&quot;&quot;&gt;Список посетителей&lt;/div&gt;&lt;div style=&quot;&quot;&gt;Список Заказов&lt;/div&gt;&lt;div style=&quot;&quot;&gt;do/Добавить новое уведомление&lt;/div&gt;&lt;div style=&quot;&quot;&gt;do/Отправить уведомление&lt;/div&gt;" style="text;html=1;align=left;verticalAlign=middle;resizable=0;points=[];autosize=1;strokeColor=none;fillColor=none;" vertex="1" parent="VFXdSf9DOxPuRH9jbH5X-50">
          <mxGeometry y="30" width="210" height="70" as="geometry" />
        </mxCell>
        <mxCell id="lsvjCovd1dEyMKXWD2To-95" value="Оплата" style="swimlane;startSize=20;horizontal=1;containerType=tree;newEdgeStyle={&quot;edgeStyle&quot;:&quot;elbowEdgeStyle&quot;,&quot;startArrow&quot;:&quot;none&quot;,&quot;endArrow&quot;:&quot;none&quot;};" parent="VFXdSf9DOxPuRH9jbH5X-15" vertex="1">
          <mxGeometry x="420" y="390" width="200" height="120" as="geometry" />
        </mxCell>
        <mxCell id="VFXdSf9DOxPuRH9jbH5X-62" style="edgeStyle=orthogonalEdgeStyle;rounded=0;orthogonalLoop=1;jettySize=auto;html=1;entryX=0;entryY=0.222;entryDx=0;entryDy=0;entryPerimeter=0;" edge="1" parent="lsvjCovd1dEyMKXWD2To-95" source="lsvjCovd1dEyMKXWD2To-97" target="lsvjCovd1dEyMKXWD2To-97">
          <mxGeometry relative="1" as="geometry">
            <mxPoint x="-70" y="50" as="targetPoint" />
            <Array as="points">
              <mxPoint x="-70" y="90" />
              <mxPoint x="-70" y="50" />
            </Array>
          </mxGeometry>
        </mxCell>
        <mxCell id="lsvjCovd1dEyMKXWD2To-97" value="&lt;div style=&quot;&quot;&gt;&lt;span style=&quot;background-color: transparent; color: light-dark(rgb(0, 0, 0), rgb(255, 255, 255));&quot;&gt;do/Добавить оплату&lt;/span&gt;&lt;/div&gt;&lt;div style=&quot;&quot;&gt;&lt;span style=&quot;background-color: transparent; color: light-dark(rgb(0, 0, 0), rgb(255, 255, 255));&quot;&gt;do/Удалить оплату&lt;/span&gt;&lt;/div&gt;&lt;div style=&quot;&quot;&gt;&lt;span style=&quot;background-color: transparent; color: light-dark(rgb(0, 0, 0), rgb(255, 255, 255));&quot;&gt;do/Присвоить статус&lt;/span&gt;&lt;/div&gt;&lt;div style=&quot;&quot;&gt;&lt;span style=&quot;background-color: transparent; color: light-dark(rgb(0, 0, 0), rgb(255, 255, 255));&quot;&gt;do/Изменить оплату&lt;/span&gt;&lt;/div&gt;&lt;div&gt;&lt;br&gt;&lt;/div&gt;" style="text;html=1;align=left;verticalAlign=middle;resizable=0;points=[];autosize=1;strokeColor=none;fillColor=none;" parent="lsvjCovd1dEyMKXWD2To-95" vertex="1">
          <mxGeometry y="30" width="140" height="90" as="geometry" />
        </mxCell>
        <mxCell id="VFXdSf9DOxPuRH9jbH5X-53" value="" style="html=1;verticalAlign=bottom;startArrow=oval;startFill=1;endArrow=block;startSize=8;curved=0;rounded=0;" edge="1" parent="VFXdSf9DOxPuRH9jbH5X-15">
          <mxGeometry width="60" relative="1" as="geometry">
            <mxPoint x="1090" y="390" as="sourcePoint" />
            <mxPoint x="1250" y="240" as="targetPoint" />
            <Array as="points">
              <mxPoint x="1220" y="390" />
              <mxPoint x="1220" y="240" />
            </Array>
          </mxGeometry>
        </mxCell>
        <mxCell id="VFXdSf9DOxPuRH9jbH5X-59" value="Присвоен статус &lt;br&gt;&quot;оплачено&quot;" style="text;html=1;align=center;verticalAlign=middle;resizable=0;points=[];autosize=1;strokeColor=none;fillColor=none;" vertex="1" parent="VFXdSf9DOxPuRH9jbH5X-15">
          <mxGeometry x="670" y="340" width="120" height="40" as="geometry" />
        </mxCell>
        <mxCell id="VFXdSf9DOxPuRH9jbH5X-61" value="Присвоен статус&lt;br&gt;&quot;ошибка оплаты&quot;" style="text;html=1;align=center;verticalAlign=middle;resizable=0;points=[];autosize=1;strokeColor=none;fillColor=none;" vertex="1" parent="VFXdSf9DOxPuRH9jbH5X-15">
          <mxGeometry x="230" y="440" width="120" height="40" as="geometry" />
        </mxCell>
        <mxCell id="VFXdSf9DOxPuRH9jbH5X-26" value="" style="html=1;verticalAlign=bottom;startArrow=oval;startFill=1;endArrow=block;startSize=8;curved=0;rounded=0;" edge="1" parent="1">
          <mxGeometry width="60" relative="1" as="geometry">
            <mxPoint x="60" y="370" as="sourcePoint" />
            <mxPoint x="140" y="370.5" as="targetPoint" />
          </mxGeometry>
        </mxCell>
        <mxCell id="VFXdSf9DOxPuRH9jbH5X-30" value="" style="endArrow=classic;html=1;rounded=0;exitX=1.025;exitY=0.35;exitDx=0;exitDy=0;exitPerimeter=0;" edge="1" parent="1" source="VFXdSf9DOxPuRH9jbH5X-25">
          <mxGeometry width="50" height="50" relative="1" as="geometry">
            <mxPoint x="1000" y="600" as="sourcePoint" />
            <mxPoint x="1130" y="264" as="targetPoint" />
          </mxGeometry>
        </mxCell>
        <mxCell id="VFXdSf9DOxPuRH9jbH5X-57" value="" style="html=1;verticalAlign=bottom;startArrow=oval;startFill=1;endArrow=block;startSize=8;curved=0;rounded=0;" edge="1" parent="1">
          <mxGeometry width="60" relative="1" as="geometry">
            <mxPoint x="1870" y="340" as="sourcePoint" />
            <mxPoint x="170" y="390" as="targetPoint" />
            <Array as="points">
              <mxPoint x="1900" y="340" />
              <mxPoint x="1900" y="700" />
              <mxPoint x="1710" y="700" />
              <mxPoint x="1330" y="700" />
              <mxPoint x="960" y="700" />
              <mxPoint x="570" y="700" />
              <mxPoint x="170" y="700" />
            </Array>
          </mxGeometry>
        </mxCell>
        <mxCell id="VFXdSf9DOxPuRH9jbH5X-58" value="" style="html=1;verticalAlign=bottom;startArrow=oval;startFill=1;endArrow=block;startSize=8;curved=0;rounded=0;" edge="1" parent="1">
          <mxGeometry width="60" relative="1" as="geometry">
            <mxPoint x="780" y="570" as="sourcePoint" />
            <mxPoint x="870" y="260" as="targetPoint" />
            <Array as="points">
              <mxPoint x="830" y="570" />
              <mxPoint x="830" y="260" />
              <mxPoint x="850" y="260" />
            </Array>
          </mxGeometry>
        </mxCell>
        <mxCell id="VFXdSf9DOxPuRH9jbH5X-66" value="Система приложения кофейни" style="swimlane;whiteSpace=wrap;html=1;align=left;" vertex="1" parent="1">
          <mxGeometry x="260" y="830" width="670" height="810" as="geometry" />
        </mxCell>
        <mxCell id="VFXdSf9DOxPuRH9jbH5X-67" value="Пользователь" style="swimlane;whiteSpace=wrap;html=1;" vertex="1" parent="VFXdSf9DOxPuRH9jbH5X-66">
          <mxGeometry y="20" width="200" height="780" as="geometry" />
        </mxCell>
        <mxCell id="VFXdSf9DOxPuRH9jbH5X-63" value="" style="ellipse;html=1;shape=startState;fillColor=#000000;strokeColor=#ff0000;" vertex="1" parent="VFXdSf9DOxPuRH9jbH5X-67">
          <mxGeometry x="70" y="30" width="30" height="30" as="geometry" />
        </mxCell>
        <mxCell id="VFXdSf9DOxPuRH9jbH5X-64" value="" style="edgeStyle=orthogonalEdgeStyle;html=1;verticalAlign=bottom;endArrow=open;endSize=8;strokeColor=#ff0000;rounded=0;" edge="1" source="VFXdSf9DOxPuRH9jbH5X-63" parent="VFXdSf9DOxPuRH9jbH5X-67">
          <mxGeometry relative="1" as="geometry">
            <mxPoint x="85" y="80" as="targetPoint" />
          </mxGeometry>
        </mxCell>
        <mxCell id="VFXdSf9DOxPuRH9jbH5X-70" value="Ввести логин и пароль" style="rounded=1;whiteSpace=wrap;html=1;" vertex="1" parent="VFXdSf9DOxPuRH9jbH5X-67">
          <mxGeometry x="39" y="80" width="115" height="50" as="geometry" />
        </mxCell>
        <mxCell id="VFXdSf9DOxPuRH9jbH5X-68" value="Приложение" style="swimlane;whiteSpace=wrap;html=1;" vertex="1" parent="VFXdSf9DOxPuRH9jbH5X-66">
          <mxGeometry x="200" y="20" width="270" height="780" as="geometry" />
        </mxCell>
        <mxCell id="VFXdSf9DOxPuRH9jbH5X-71" value="Авторизовать пользователя" style="rounded=1;whiteSpace=wrap;html=1;" vertex="1" parent="VFXdSf9DOxPuRH9jbH5X-68">
          <mxGeometry x="10" y="150" width="90" height="40" as="geometry" />
        </mxCell>
        <mxCell id="VFXdSf9DOxPuRH9jbH5X-78" style="edgeStyle=orthogonalEdgeStyle;rounded=0;orthogonalLoop=1;jettySize=auto;html=1;entryX=0;entryY=0.5;entryDx=0;entryDy=0;" edge="1" parent="VFXdSf9DOxPuRH9jbH5X-68" source="VFXdSf9DOxPuRH9jbH5X-73" target="VFXdSf9DOxPuRH9jbH5X-77">
          <mxGeometry relative="1" as="geometry" />
        </mxCell>
        <mxCell id="VFXdSf9DOxPuRH9jbH5X-73" value="" style="rhombus;whiteSpace=wrap;html=1;" vertex="1" parent="VFXdSf9DOxPuRH9jbH5X-68">
          <mxGeometry x="40" y="90" width="30" height="30" as="geometry" />
        </mxCell>
        <mxCell id="VFXdSf9DOxPuRH9jbH5X-72" style="edgeStyle=orthogonalEdgeStyle;rounded=0;orthogonalLoop=1;jettySize=auto;html=1;entryX=0.5;entryY=0;entryDx=0;entryDy=0;" edge="1" parent="VFXdSf9DOxPuRH9jbH5X-68" source="VFXdSf9DOxPuRH9jbH5X-73" target="VFXdSf9DOxPuRH9jbH5X-71">
          <mxGeometry relative="1" as="geometry" />
        </mxCell>
        <mxCell id="VFXdSf9DOxPuRH9jbH5X-77" value="Вывести сообщение &quot;Неправильный логин или пароль, либо пользователь не найден&quot;" style="rounded=1;whiteSpace=wrap;html=1;" vertex="1" parent="VFXdSf9DOxPuRH9jbH5X-68">
          <mxGeometry x="130" y="60" width="130" height="90" as="geometry" />
        </mxCell>
        <mxCell id="VFXdSf9DOxPuRH9jbH5X-69" value="Кофейня" style="swimlane;whiteSpace=wrap;html=1;" vertex="1" parent="VFXdSf9DOxPuRH9jbH5X-66">
          <mxGeometry x="470" y="20" width="200" height="780" as="geometry" />
        </mxCell>
        <mxCell id="VFXdSf9DOxPuRH9jbH5X-76" style="edgeStyle=orthogonalEdgeStyle;rounded=0;orthogonalLoop=1;jettySize=auto;html=1;entryX=0;entryY=0.5;entryDx=0;entryDy=0;" edge="1" parent="VFXdSf9DOxPuRH9jbH5X-66" source="VFXdSf9DOxPuRH9jbH5X-70" target="VFXdSf9DOxPuRH9jbH5X-73">
          <mxGeometry relative="1" as="geometry" />
        </mxCell>
      </root>
    </mxGraphModel>
  </diagram>
</mxfile>
